<svg width="530" height="143" viewBox="0 0 530 143" fill="none" xmlns="http://www.w3.org/2000/svg">
<g clip-path="url(#clip0_54_437)">
<path d="M290.414 42.7771C290.251 42.3674 290.251 41.9576 290.333 41.5479C290.495 41.1382 290.739 40.8923 291.146 40.7284L293.748 39.6631L294.074 40.4006L291.471 41.384C291.227 41.4659 291.146 41.5479 291.065 41.7937C290.983 41.9576 290.983 42.2035 291.065 42.4493C291.146 42.6952 291.309 42.8591 291.471 42.941C291.634 43.023 291.797 43.023 292.041 42.941L294.643 41.9576L294.968 42.6952L292.366 43.7605C291.959 43.9244 291.553 43.9244 291.227 43.7605C290.821 43.5147 290.577 43.2688 290.414 42.7771Z" fill="#FFD480"/>
<path d="M288.706 37.6962C288.137 37.6142 287.649 37.2864 287.324 36.7947C286.999 36.3031 286.836 35.7294 286.917 35.1558C286.999 34.5821 287.324 34.0905 287.812 33.7627C288.3 33.4349 288.869 33.271 289.438 33.3529C290.008 33.4349 290.496 33.7627 290.821 34.2543C291.146 34.746 291.309 35.3197 291.227 35.8933C291.146 36.467 290.821 36.9586 290.333 37.2864C289.845 37.6962 289.276 37.8601 288.706 37.6962ZM287.73 35.3197C287.649 35.6475 287.73 36.0572 287.974 36.3031C288.218 36.6309 288.462 36.7947 288.869 36.8767C289.194 36.9586 289.601 36.8767 289.926 36.6309C290.252 36.385 290.414 36.1392 290.496 35.7294C290.577 35.4016 290.496 34.9919 290.252 34.746C290.008 34.4182 289.764 34.2543 289.357 34.1724C289.032 34.0905 288.625 34.1724 288.3 34.4182C287.974 34.6641 287.812 34.9919 287.73 35.3197Z" fill="#FFD480"/>
<path d="M287.324 29.9931L284.559 30.9765L283.501 32.2057L282.932 31.714L283.989 30.4848L284.559 27.5347L285.291 28.1903L284.803 30.0751L286.673 29.4195L287.324 29.9931Z" fill="#FFD480"/>
<path d="M277.727 28.0263L277.646 26.3054L277.077 25.9776L276.426 27.2887L275.694 26.879L277.646 23.1094L279.11 23.8469C279.435 24.0108 279.679 24.3386 279.842 24.6664C279.923 24.9942 279.923 25.4039 279.761 25.7317C279.679 25.9776 279.435 26.1415 279.273 26.3054C279.029 26.4693 278.785 26.4693 278.541 26.4693L278.622 28.3541L277.727 28.0263ZM277.971 24.3386L277.402 25.4859L278.134 25.8956C278.297 25.9776 278.459 25.9776 278.541 25.8956C278.703 25.8137 278.785 25.7317 278.866 25.5678C278.947 25.4039 278.947 25.24 278.947 25.0761C278.866 24.9122 278.785 24.8303 278.703 24.7483L277.971 24.3386Z" fill="#FFD480"/>
<path d="M272.279 25.24C271.791 25.5678 271.221 25.6497 270.652 25.4858C270.083 25.3219 269.595 24.9942 269.27 24.5025C268.944 24.0108 268.863 23.4371 269.026 22.8635C269.188 22.2899 269.514 21.7982 270.002 21.4704C270.49 21.1426 271.059 21.0606 271.628 21.2245C272.197 21.3884 272.685 21.7162 273.011 22.2079C273.336 22.6996 273.417 23.2732 273.255 23.8469C273.173 24.5025 272.848 24.9122 272.279 25.24ZM270.002 24.0927C270.164 24.4205 270.49 24.5844 270.815 24.6664C271.221 24.7483 271.547 24.6664 271.872 24.5025C272.197 24.3386 272.36 24.0108 272.441 23.601C272.523 23.1913 272.441 22.8635 272.279 22.5357C272.116 22.2079 271.791 22.044 271.465 21.9621C271.059 21.8801 270.734 21.9621 270.408 22.126C270.083 22.2899 269.92 22.6177 269.839 23.0274C269.758 23.4371 269.839 23.8469 270.002 24.0927Z" fill="#FFD480"/>
<path d="M265.61 21.3066L263.983 21.3886V22.372H265.61V23.1095L263.983 23.1914L264.065 24.8304H263.252L263.089 20.5691H265.61V21.3066Z" fill="#FFD480"/>
<path d="M257.965 25.0763C257.64 25.568 257.233 25.9777 256.664 26.1416C256.095 26.3055 255.525 26.2235 255.037 25.9777C254.549 25.6499 254.143 25.2402 253.98 24.6665C253.817 24.0929 253.899 23.5192 254.143 23.0276C254.468 22.5359 254.875 22.1261 255.444 21.9622C256.013 21.7983 256.583 21.8803 257.071 22.1261C257.558 22.4539 257.965 22.8637 258.128 23.4373C258.372 23.929 258.29 24.5026 257.965 25.0763ZM255.444 25.1582C255.769 25.3221 256.095 25.4041 256.501 25.2402C256.908 25.1582 257.152 24.9124 257.314 24.5846C257.477 24.2568 257.558 23.929 257.396 23.5192C257.314 23.1095 257.071 22.8637 256.745 22.6998C256.42 22.5359 256.095 22.4539 255.688 22.6178C255.281 22.6998 255.037 22.9456 254.875 23.2734C254.712 23.6012 254.631 23.929 254.793 24.3387C254.875 24.7485 255.119 24.9943 255.444 25.1582Z" fill="#FFD480"/>
<path d="M250.239 24.011L250.646 24.7485L249.67 25.3222L251.378 28.2723L250.646 28.682L248.938 25.7319L247.962 26.3055L247.556 25.568L250.239 24.011Z" fill="#FFD480"/>
<path d="M246.824 30.7308C246.824 31.3044 246.58 31.878 246.173 32.2878C245.766 32.6975 245.197 32.9434 244.628 32.8614C244.059 32.8614 243.489 32.6156 243.083 32.2058C242.676 31.7961 242.432 31.2224 242.432 30.6488C242.432 30.0752 242.676 29.5015 243.083 29.0918C243.489 28.682 244.059 28.4362 244.628 28.5181C245.197 28.5181 245.766 28.764 246.173 29.1737C246.58 29.5835 246.824 30.0752 246.824 30.7308ZM244.628 32.0419C244.953 32.0419 245.279 31.96 245.604 31.6322C245.848 31.3863 246.01 31.0585 246.01 30.6488C246.01 30.321 245.848 29.9113 245.604 29.6654C245.36 29.3376 245.035 29.2557 244.628 29.2557C244.221 29.2557 243.977 29.3376 243.652 29.6654C243.408 29.9113 243.245 30.2391 243.245 30.6488C243.245 31.0585 243.408 31.3863 243.652 31.6322C243.896 31.878 244.221 32.0419 244.628 32.0419Z" fill="#FFD480"/>
<path d="M238.61 34.4183L239.016 33.7627L242.595 36.0573L242.107 36.7128L240.643 35.8114L239.83 37.1226L241.294 38.024L240.806 38.7615L237.309 36.467L237.715 35.7295L239.179 36.7128L239.992 35.3197L238.61 34.4183Z" fill="#FFD480"/>
<path d="M235.031 41.384C235.194 40.9742 235.438 40.7284 235.763 40.5645C236.089 40.4006 236.495 40.4006 236.821 40.4825C237.227 40.6464 237.471 40.8103 237.634 41.2201C237.797 41.5479 237.796 41.9576 237.715 42.2854L237.471 43.0229L238.772 43.4327L238.528 44.2522L234.543 42.859L235.031 41.384ZM236.983 42.0396C237.065 41.8757 237.065 41.7118 236.983 41.5479C236.902 41.384 236.821 41.302 236.577 41.2201C236.414 41.1381 236.251 41.1381 236.089 41.2201C235.926 41.302 235.845 41.384 235.763 41.5479L235.519 42.2854L236.739 42.6951L236.983 42.0396Z" fill="#FFD480"/>
<path d="M288.95 65.8047L289.682 66.2144L289.032 67.1978L291.878 69.0007L291.471 69.7382L288.625 67.8534L287.974 68.8368L287.324 68.427L288.95 65.8047Z" fill="#FFD480"/>
<path d="M285.544 70.7027L285.01 71.3206L288.199 74.1198L288.733 73.5019L285.544 70.7027Z" fill="#FFD480"/>
<path d="M280.818 75.9661L279.435 76.9495L279.923 77.769L281.306 76.8676L281.713 77.5232L280.411 78.4246L281.225 79.8177L280.574 80.2275L278.297 76.7037L280.411 75.3105L280.818 75.9661Z" fill="#FFD480"/>
<path d="M276.589 81.6205C276.345 82.1942 275.857 82.522 275.288 82.6858C274.719 82.8497 274.149 82.8497 273.661 82.5219C273.092 82.2761 272.767 81.7844 272.604 81.2108C272.441 80.6371 272.441 80.0635 272.685 79.4899C272.929 78.9162 273.417 78.5884 273.987 78.4245C274.556 78.2606 275.125 78.2606 275.613 78.5065C276.182 78.7523 276.508 79.244 276.67 79.8177C276.914 80.5552 276.833 81.1288 276.589 81.6205ZM273.987 81.8664C274.312 82.0303 274.637 82.0303 275.044 81.9483C275.369 81.8664 275.694 81.6205 275.857 81.2927C276.02 80.9649 276.02 80.6371 275.938 80.2274C275.776 79.8177 275.613 79.5718 275.288 79.4079C274.963 79.244 274.637 79.244 274.231 79.326C273.905 79.4079 273.58 79.6538 273.417 79.9815C273.255 80.3093 273.255 80.6371 273.336 81.0469C273.417 81.4566 273.661 81.7025 273.987 81.8664Z" fill="#FFD480"/>
<path d="M269.107 84.161L268.131 82.7679L267.48 82.8498L267.643 84.3249L266.83 84.4068L266.342 80.2275L267.968 80.0636C268.375 79.9816 268.7 80.1455 269.026 80.3913C269.351 80.6372 269.513 80.965 269.513 81.2928C269.513 81.5386 269.514 81.7845 269.351 82.0303C269.27 82.2762 269.026 82.4401 268.863 82.604L270.001 84.079L269.107 84.161ZM267.236 80.883L267.399 82.1123L268.212 82.0303C268.375 82.0303 268.456 81.9484 268.619 81.7845C268.7 81.6206 268.782 81.4567 268.7 81.2928C268.7 81.1289 268.619 80.965 268.456 80.883C268.294 80.8011 268.212 80.7191 268.05 80.7191L267.236 80.883Z" fill="#FFD480"/>
<path d="M262.113 80.0636C262.519 80.0636 262.845 80.2275 263.089 80.5553C263.333 80.8831 263.495 81.2109 263.414 81.6207C263.414 82.0304 263.251 82.3582 262.926 82.604C262.601 82.8499 262.275 82.9318 261.869 82.9318L261.137 82.8499L261.055 84.243L260.242 84.1611L260.567 79.9817L262.113 80.0636ZM261.95 82.1123C262.113 82.1123 262.275 82.1123 262.438 81.9485C262.601 81.8665 262.601 81.7026 262.682 81.5387C262.682 81.3748 262.682 81.2109 262.519 81.047C262.438 80.8831 262.275 80.8831 262.113 80.8012L261.381 80.7192L261.299 82.0304L261.95 82.1123Z" fill="#FFD480"/>
<path d="M255.119 78.5066L252.76 80.3094L252.11 81.7845L251.378 81.4567L252.029 79.9816L251.785 77.0315L252.598 77.3593L252.76 79.408L254.306 78.1788L255.119 78.5066Z" fill="#FFD480"/>
<path d="M246.905 77.933L248.206 78.9164L247.8 79.5719L245.767 78.1788L248.206 74.655L248.938 75.1467L246.905 77.933Z" fill="#FFD480"/>
<path d="M245.278 72.1147L245.848 72.7703L242.839 75.6385L242.432 75.2288L243.001 72.1147L241.131 73.9176L240.562 73.262L243.652 70.3938L244.059 70.8035L243.489 73.9176L245.278 72.1147Z" fill="#FFD480"/>
<path d="M238.528 69.5742C237.959 69.4103 237.471 69.0825 237.227 68.5089C236.902 68.0172 236.821 67.4436 236.983 66.8699C237.146 66.2963 237.471 65.8865 238.04 65.5588C238.61 65.231 239.098 65.149 239.667 65.3129C240.236 65.4768 240.643 65.8046 240.968 66.3782C241.293 66.8699 241.375 67.4436 241.212 68.0172C241.049 68.5908 240.724 69.0825 240.155 69.3284C239.667 69.6562 239.098 69.7381 238.528 69.5742ZM237.715 67.1158C237.634 67.4436 237.634 67.8533 237.878 68.1811C238.04 68.5089 238.366 68.7547 238.691 68.8367C239.016 68.9186 239.423 68.9186 239.748 68.6728C240.074 68.5089 240.318 68.1811 240.399 67.8533C240.48 67.5255 240.48 67.1158 240.236 66.788C240.074 66.4602 239.748 66.2143 239.423 66.1324C239.098 66.0504 238.691 66.0504 238.366 66.2963C238.04 66.4602 237.878 66.706 237.715 67.1158Z" fill="#FFD480"/>
<path fill-rule="evenodd" clip-rule="evenodd" d="M225.679 74.5731C225.679 74.655 225.679 74.737 225.598 74.737C225.516 74.8189 225.516 74.8189 225.435 74.8189C225.354 74.8189 225.272 74.8189 225.272 74.737C225.191 74.655 225.191 74.655 225.191 74.5731C225.191 74.4911 225.191 74.4092 225.272 74.4092C225.354 74.3272 225.354 74.3272 225.435 74.3272C225.516 74.3272 225.598 74.3272 225.598 74.4092C225.679 74.4911 225.679 74.4911 225.679 74.5731ZM222.589 70.8854H225.272V71.1312H224.052V74.737H223.727V71.1312H222.507V70.8854H222.589ZM221.125 74.8189C220.799 74.8189 220.474 74.737 220.23 74.5731C219.986 74.4092 219.824 74.1633 219.742 73.9175L219.986 73.7536C220.068 73.9994 220.149 74.1633 220.393 74.3272C220.555 74.4911 220.881 74.5731 221.125 74.5731C221.45 74.5731 221.694 74.4911 221.857 74.3272C222.019 74.1633 222.101 73.9994 222.101 73.7536C222.101 73.5077 222.019 73.3438 221.857 73.2619C221.694 73.1799 221.45 73.0161 221.125 72.9341L220.881 72.8522L220.637 72.7702C220.555 72.6883 220.474 72.6883 220.393 72.6883C220.23 72.6063 220.068 72.4424 220.068 72.3605C219.986 72.1966 219.905 72.0327 219.905 71.8688C219.905 71.541 219.986 71.2951 220.23 71.1312C220.474 70.9673 220.718 70.8034 221.043 70.8034C221.369 70.8034 221.613 70.8854 221.775 71.0493C222.019 71.2132 222.182 71.3771 222.263 71.6229L222.019 71.7868C221.857 71.3771 221.531 71.1312 221.043 71.1312C220.799 71.1312 220.555 71.2132 220.393 71.3771C220.23 71.541 220.149 71.7049 220.149 71.9507C220.149 72.1966 220.23 72.2785 220.393 72.4424C220.555 72.5244 220.799 72.6883 221.125 72.7702C221.369 72.8522 221.531 72.9341 221.613 72.9341C221.775 73.0161 221.857 73.016 222.019 73.098C222.263 73.2619 222.426 73.5077 222.426 73.8355C222.426 74.1633 222.345 74.4092 222.101 74.5731C221.775 74.737 221.45 74.8189 221.125 74.8189ZM217.302 72.9341V74.4911H219.254V74.737H217.058V70.8854H219.254V71.1312H217.384V72.6063H219.173V72.9341H217.302ZM311.478 73.6716H311.966V73.9175H311.478V74.737H311.152V73.9175H309.119V73.6716L310.583 70.8854H310.908L309.445 73.6716H311.152V72.4424H311.478V73.6716ZM307.249 71.2951L308.225 70.9673H308.469V74.8189H308.225V71.2951L307.33 71.541L307.249 71.2951ZM304.728 74.0814C304.972 74.4092 305.216 74.4911 305.541 74.4911C305.866 74.4911 306.192 74.3272 306.354 74.0814C306.517 73.7536 306.679 73.3438 306.679 72.8522C306.679 72.2785 306.598 71.8688 306.354 71.6229C306.192 71.2951 305.866 71.1312 305.541 71.1312C305.216 71.1312 304.89 71.2951 304.728 71.6229C304.565 71.9507 304.402 72.3605 304.402 72.8522C304.402 73.3438 304.484 73.8355 304.728 74.0814ZM306.598 74.3272C306.354 74.655 306.029 74.9009 305.541 74.9009C305.053 74.9009 304.728 74.737 304.484 74.3272C304.24 73.9994 304.077 73.5077 304.077 72.8522C304.077 72.2785 304.24 71.7868 304.484 71.3771C304.728 71.0493 305.053 70.8034 305.541 70.8034C306.029 70.8034 306.354 70.9673 306.598 71.3771C306.842 71.7049 307.005 72.1966 307.005 72.8522C307.005 73.4258 306.842 73.9175 306.598 74.3272ZM303.589 74.737H301.149V74.4911L302.532 73.0161C302.938 72.6063 303.182 72.1966 303.182 71.9507C303.182 71.7049 303.101 71.459 302.938 71.3771C302.776 71.2132 302.613 71.1312 302.369 71.1312C301.963 71.1312 301.637 71.2951 301.475 71.7049L301.231 71.541C301.312 71.2951 301.475 71.1312 301.719 70.9673C301.881 70.8034 302.125 70.8034 302.369 70.8034C302.694 70.8034 302.938 70.8854 303.182 71.1312C303.426 71.2951 303.508 71.6229 303.508 71.9507C303.508 72.1966 303.426 72.3605 303.345 72.6063C303.264 72.8521 303.02 73.0161 302.776 73.2619L301.556 74.4911H303.589V74.737ZM254.143 5.81834H275.857C277.24 5.81834 278.378 6.96562 278.378 8.35874C278.378 9.75186 277.24 10.8991 275.857 10.8991H254.143C252.76 10.8991 251.622 9.75186 251.622 8.35874C251.622 6.96562 252.76 5.81834 254.143 5.81834ZM264.715 18.3564C283.42 18.3564 298.547 33.5989 298.547 52.447C298.547 71.2951 283.42 86.5375 264.715 86.5375C246.01 86.5375 230.884 71.2951 230.884 52.447C230.884 33.5989 246.092 18.3564 264.715 18.3564ZM203.477 31.1404C205.836 31.1404 207.706 33.0252 207.706 35.4017C207.706 37.7782 205.836 39.663 203.477 39.663C201.119 39.663 199.248 37.7782 199.248 35.4017C199.248 33.1072 201.2 31.1404 203.477 31.1404ZM191.604 26.4693H231.616C235.031 26.4693 238.041 24.5026 239.342 21.3066L246.092 5.16275C247.474 1.96676 250.402 0 253.818 0H275.45C278.866 0 281.875 1.96676 283.176 5.16275L289.926 21.3066C291.309 24.5026 294.237 26.4693 297.652 26.4693H317.984V75.3926C317.984 80.3914 313.917 84.4069 309.038 84.4069H289.032C282.282 89.5696 273.905 92.6837 264.797 92.6837C255.688 92.6837 247.23 89.5696 240.562 84.4069H200.712C195.751 84.4069 191.766 80.3095 191.766 75.3926V26.4693H191.604Z" fill="#FFD480"/>
<path fill-rule="evenodd" clip-rule="evenodd" d="M297.327 15.4062H311.722C312.616 15.4062 313.429 16.1438 313.429 17.1272V20.1593C313.429 21.0607 312.698 21.8802 311.722 21.8802H297.327C296.432 21.8802 295.619 21.1426 295.619 20.1593V17.1272C295.7 16.2257 296.432 15.4062 297.327 15.4062Z" fill="#FFD480"/>
<path fill-rule="evenodd" clip-rule="evenodd" d="M207.95 15.4062H222.345C223.239 15.4062 224.053 16.1438 224.053 17.1272V20.1593C224.053 21.0607 223.321 21.8802 222.345 21.8802H207.95C207.055 21.8802 206.242 21.1426 206.242 20.1593V17.1272C206.242 16.2257 206.974 15.4062 207.95 15.4062Z" fill="#FFD480"/>
<path fill-rule="evenodd" clip-rule="evenodd" d="M251.053 56.0527C251.297 57.0361 250.728 58.0195 249.752 58.2653C248.776 58.5112 247.8 57.9375 247.556 56.9541C246.011 50.808 247.718 44.3341 252.191 39.8269C256.176 35.8114 261.788 33.9266 267.318 34.8281C268.294 34.992 268.944 35.8934 268.782 36.8768C268.619 37.8602 267.725 38.5157 266.749 38.3518C262.276 37.6963 257.803 39.1713 254.631 42.3673C251.134 45.973 249.752 51.2177 251.053 56.0527ZM264.716 26.5513C278.866 26.5513 290.414 38.106 290.414 52.447C290.414 66.706 278.948 78.3427 264.716 78.3427C250.565 78.3427 239.017 66.7879 239.017 52.447C239.017 38.1879 250.565 26.5513 264.716 26.5513Z" fill="#FFD480"/>
<path d="M275.451 6.88379V9.67004H274.963V7.86717L274.149 9.17834L273.336 7.86717V9.67004H272.848V6.88379H273.336L274.149 8.19496L274.963 6.88379H275.451Z" fill="#FFD480"/>
<path d="M270.489 9.67004C270.164 9.67004 269.92 9.58809 269.757 9.42419C269.595 9.26029 269.432 9.01445 269.432 8.7686V6.88379H270.001V8.68666C270.001 8.85055 270.083 8.9325 270.164 9.01445C270.245 9.0964 270.408 9.17834 270.571 9.17834C270.733 9.17834 270.896 9.0964 270.977 9.01445C271.059 8.9325 271.14 8.85055 271.14 8.68666V6.88379H271.709V8.7686C271.709 9.0964 271.628 9.26029 271.384 9.42419C271.059 9.58809 270.815 9.67004 270.489 9.67004Z" fill="#FFD480"/>
<path d="M268.212 6.88379H267.643V9.67004H268.212V6.88379Z" fill="#FFD480"/>
<path d="M266.342 6.88379V9.67004H265.773V7.86717L265.041 9.17834H264.959L264.227 7.86717V9.67004H263.658V6.88379H264.227L264.959 8.19496L265.773 6.88379H266.342Z" fill="#FFD480"/>
<path d="M261.299 9.0964H262.519V9.67004H260.812V6.88379H262.438V7.45743H261.299V8.03107H262.357V8.52276H261.299V9.0964Z" fill="#FFD480"/>
<path d="M259.104 9.67004L258.534 8.68666H258.128V9.67004H257.559V6.88379H258.616C258.86 6.88379 259.104 6.96574 259.266 7.12963C259.429 7.29353 259.51 7.53938 259.51 7.78522C259.51 7.94912 259.429 8.11302 259.348 8.27691C259.266 8.44081 259.104 8.52276 258.941 8.60471L259.51 9.67004H259.104ZM258.128 7.37548V8.19496H258.697C258.778 8.19496 258.86 8.19496 258.941 8.11302C259.022 8.03107 259.022 7.94912 259.022 7.78522C259.022 7.70327 259.022 7.53938 258.941 7.53938C258.86 7.45743 258.778 7.45743 258.697 7.45743H258.128V7.37548Z" fill="#FFD480"/>
<path d="M255.526 6.88379C255.769 6.88379 256.013 6.96574 256.176 7.12963C256.339 7.29353 256.42 7.53938 256.42 7.78522C256.42 8.03107 256.339 8.27691 256.176 8.44081C256.013 8.60471 255.769 8.68665 255.526 8.68665H255.038V9.58809H254.468V6.88379H255.526ZM255.526 8.27691C255.607 8.27691 255.769 8.27691 255.769 8.19496C255.851 8.11302 255.851 8.03107 255.851 7.86717C255.851 7.78522 255.851 7.62132 255.769 7.53938C255.688 7.45743 255.607 7.45743 255.526 7.45743H255.038V8.27691H255.526Z" fill="#FFD480"/>
<path fill-rule="evenodd" clip-rule="evenodd" d="M234.869 54.4138C235.194 54.4138 235.438 54.6597 235.438 54.9875C235.438 55.3152 235.194 55.5611 234.869 55.5611C234.544 55.5611 234.3 55.3152 234.3 54.9875C234.218 54.6597 234.544 54.4138 234.869 54.4138Z" fill="#FFD480"/>
<path fill-rule="evenodd" clip-rule="evenodd" d="M294.237 54.4138C294.562 54.4138 294.806 54.6597 294.806 54.9875C294.806 55.3152 294.562 55.5611 294.237 55.5611C293.911 55.5611 293.667 55.3152 293.667 54.9875C293.667 54.6597 293.911 54.4138 294.237 54.4138Z" fill="#FFD480"/>
<path d="M49.0394 43.7604H28.952V57.3638H49.2834C52.0485 57.3638 54.0816 56.8721 55.3828 55.8068C56.6841 54.7414 57.3347 52.9386 57.3347 50.3982C57.3347 47.7758 56.7654 45.973 55.5455 45.0715C54.4883 44.252 52.2925 43.7604 49.0394 43.7604ZM86.2866 49.8245C86.2866 58.3472 84.0908 64.5753 79.6179 68.6727C75.145 72.6882 68.395 74.7369 59.2052 74.7369H28.952V84.4068H0V26.4692H58.9612C68.6389 26.4692 75.6329 28.2721 79.8619 31.8778C84.1722 35.4836 86.2866 41.4658 86.2866 49.8245Z" fill="#FFD480"/>
<path d="M182.333 84.4068H148.582L131.504 59.4125H141.67C147.2 59.4125 150.046 57.036 150.046 52.201C150.046 49.9065 149.396 48.1856 148.013 47.1202C146.712 46.0549 144.516 45.5632 141.588 45.5632H122.802V84.4068H93.8501V26.4692H151.347C161.025 26.4692 168.101 28.1902 172.492 31.55C176.965 34.9099 179.161 40.3185 179.161 47.8578C179.161 52.3649 178.022 56.2985 175.826 59.8222C173.631 63.2641 170.052 65.8045 165.173 67.2796L182.333 84.4068Z" fill="#FFD480"/>
<path d="M396.951 50.3162V66.542H351.734V84.4068H322.863V26.4692H396.951V43.7604H351.734V50.3162H396.951Z" fill="#FFD480"/>
<path d="M441.03 26.4692H412.078V84.4068H441.03V26.4692Z" fill="#FFD480"/>
<path d="M530 26.4692V47.6939H502.43V84.4068H473.478V47.6939H445.828V26.4692H530Z" fill="#FFD480"/>
<path d="M128.088 128.577H122.883V135.543H128.088C129.145 135.543 129.959 135.297 130.447 134.723C130.935 134.15 131.179 133.248 131.179 131.937C131.179 130.626 130.935 129.724 130.528 129.315C130.121 128.741 129.308 128.577 128.088 128.577ZM134.594 131.855C134.594 134.068 134.106 135.789 133.13 136.854C132.155 137.919 130.691 138.493 128.739 138.493H122.965V142.672H119.63V125.709H128.658C130.772 125.709 132.236 126.201 133.212 127.102C134.106 128.085 134.594 129.643 134.594 131.855Z" fill="#FFD480"/>
<path d="M155.088 142.59H150.859L144.19 134.805H148.175C149.314 134.805 150.127 134.559 150.615 134.068C151.184 133.576 151.428 132.756 151.428 131.527C151.428 130.38 151.184 129.56 150.696 129.151C150.208 128.741 149.314 128.577 148.094 128.577H143.296V142.59H139.961V125.627H148.501C150.696 125.627 152.242 126.037 153.218 126.938C154.193 127.84 154.681 129.233 154.681 131.281C154.681 133.002 154.275 134.313 153.38 135.297C152.486 136.198 151.184 136.69 149.314 136.772L155.088 142.59Z" fill="#FFD480"/>
<path d="M166.555 139.804C167.206 139.968 168.019 140.05 168.995 140.05C170.052 140.05 170.865 139.968 171.435 139.804C172.085 139.64 172.573 139.394 173.142 138.985C173.63 138.575 173.956 138.001 174.2 137.182C174.362 136.362 174.525 135.379 174.525 134.15C174.525 132.838 174.444 131.773 174.2 131.036C174.037 130.216 173.63 129.642 173.142 129.233C172.655 128.823 172.085 128.577 171.435 128.413C170.865 128.249 169.971 128.249 168.995 128.249C167.938 128.249 167.124 128.331 166.555 128.413C165.986 128.495 165.417 128.823 164.847 129.233C164.359 129.642 163.953 130.216 163.79 131.036C163.627 131.855 163.465 132.838 163.465 134.15C163.465 135.379 163.546 136.444 163.79 137.182C163.953 137.919 164.359 138.575 164.847 138.985C165.417 139.394 165.905 139.722 166.555 139.804ZM172.899 142.59C171.841 142.836 170.54 143 168.995 143C167.45 143 166.148 142.836 165.091 142.59C164.034 142.344 163.139 141.853 162.326 141.197C161.594 140.542 161.025 139.64 160.618 138.493C160.293 137.346 160.13 135.952 160.13 134.232C160.13 132.511 160.293 131.036 160.7 129.888C161.106 128.741 161.676 127.84 162.407 127.184C163.221 126.528 164.115 126.119 165.173 125.791C166.23 125.545 167.45 125.381 168.995 125.381C170.459 125.381 171.76 125.545 172.817 125.791C173.874 126.037 174.769 126.528 175.582 127.184C176.396 127.84 176.965 128.741 177.371 129.888C177.778 131.036 177.941 132.511 177.941 134.232C177.941 135.952 177.778 137.346 177.371 138.493C177.046 139.64 176.477 140.542 175.664 141.197C174.932 141.771 173.956 142.262 172.899 142.59Z" fill="#FFD480"/>
<path d="M196.483 132.675V135.543H186.887V142.59H183.552V125.709H196.646V128.577H186.887V132.675H196.483Z" fill="#FFD480"/>
<path d="M205.51 125.709H202.176V142.672H205.51V125.709Z" fill="#FFD480"/>
<path d="M226.411 125.709V128.659H220.067V142.59H216.733V128.659H210.39V125.709H226.411Z" fill="#FFD480"/>
<path d="M239.748 128.577H234.544V135.543H239.748C240.806 135.543 241.619 135.297 242.107 134.723C242.595 134.15 242.839 133.248 242.839 131.937C242.839 130.626 242.595 129.724 242.188 129.315C241.782 128.741 240.968 128.577 239.748 128.577ZM246.254 131.855C246.254 134.068 245.767 135.789 244.791 136.854C243.815 137.919 242.351 138.493 240.399 138.493H234.625V142.672H231.291V125.709H240.318C242.432 125.709 243.896 126.201 244.872 127.102C245.767 128.085 246.254 129.643 246.254 131.855Z" fill="#FFD480"/>
<path d="M254.956 125.709V132.675H263.902V125.709H267.236V142.59H263.902V135.707H254.956V142.59H251.703V125.709H254.956Z" fill="#FFD480"/>
<path d="M279.273 139.804C279.923 139.968 280.736 140.05 281.712 140.05C282.77 140.05 283.583 139.968 284.152 139.804C284.803 139.64 285.291 139.394 285.86 138.985C286.348 138.575 286.673 138.001 286.917 137.182C287.08 136.362 287.243 135.379 287.243 134.15C287.243 132.838 287.161 131.773 286.917 131.036C286.755 130.216 286.348 129.642 285.86 129.233C285.372 128.823 284.803 128.577 284.152 128.413C283.583 128.249 282.688 128.249 281.712 128.249C280.655 128.249 279.842 128.331 279.273 128.413C278.703 128.495 278.134 128.823 277.565 129.233C277.077 129.642 276.67 130.216 276.508 131.036C276.345 131.855 276.182 132.838 276.182 134.15C276.182 135.379 276.264 136.444 276.508 137.182C276.67 137.919 277.077 138.575 277.565 138.985C278.134 139.394 278.703 139.722 279.273 139.804ZM285.697 142.59C284.64 142.836 283.339 143 281.794 143C280.249 143 278.947 142.836 277.89 142.59C276.833 142.344 275.938 141.853 275.125 141.197C274.393 140.542 273.824 139.64 273.417 138.493C273.092 137.346 272.929 135.952 272.929 134.232C272.929 132.511 273.092 131.036 273.498 129.888C273.905 128.741 274.474 127.84 275.206 127.184C276.02 126.528 276.914 126.119 277.971 125.791C279.029 125.545 280.249 125.381 281.794 125.381C283.258 125.381 284.559 125.545 285.616 125.791C286.673 126.037 287.568 126.528 288.381 127.184C289.194 127.84 289.764 128.741 290.17 129.888C290.577 131.036 290.74 132.511 290.74 134.232C290.74 135.952 290.577 137.346 290.17 138.493C289.845 139.64 289.276 140.542 288.462 141.197C287.649 141.771 286.755 142.262 285.697 142.59Z" fill="#FFD480"/>
<path d="M311.071 125.709V128.659H304.647V142.59H301.312V128.659H294.969V125.709H311.071Z" fill="#FFD480"/>
<path d="M321.806 139.804C322.457 139.968 323.27 140.05 324.246 140.05C325.303 140.05 326.116 139.968 326.686 139.804C327.336 139.64 327.824 139.394 328.393 138.985C328.881 138.575 329.207 138.001 329.451 137.182C329.613 136.362 329.776 135.379 329.776 134.15C329.776 132.838 329.695 131.773 329.451 131.036C329.288 130.216 328.881 129.642 328.393 129.233C327.906 128.823 327.336 128.577 326.686 128.413C326.116 128.249 325.222 128.249 324.246 128.249C323.189 128.249 322.375 128.331 321.806 128.413C321.237 128.495 320.668 128.823 320.098 129.233C319.61 129.642 319.204 130.216 319.041 131.036C318.878 131.855 318.716 132.838 318.716 134.15C318.716 135.379 318.797 136.444 319.041 137.182C319.204 137.919 319.61 138.575 320.098 138.985C320.586 139.394 321.155 139.722 321.806 139.804ZM328.15 142.59C327.092 142.836 325.791 143 324.246 143C322.701 143 321.399 142.836 320.342 142.59C319.285 142.344 318.39 141.853 317.577 141.197C316.845 140.542 316.276 139.64 315.869 138.493C315.544 137.346 315.381 135.952 315.381 134.232C315.381 132.511 315.544 131.036 315.951 129.888C316.357 128.741 316.927 127.84 317.658 127.184C318.472 126.528 319.366 126.119 320.424 125.791C321.481 125.545 322.701 125.381 324.246 125.381C325.71 125.381 327.011 125.545 328.068 125.791C329.125 126.037 330.02 126.528 330.833 127.184C331.647 127.84 332.216 128.741 332.622 129.888C333.029 131.036 333.192 132.511 333.192 134.232C333.192 135.952 333.029 137.346 332.622 138.493C332.297 139.64 331.728 140.542 330.915 141.197C330.101 141.771 329.207 142.262 328.15 142.59Z" fill="#FFD480"/>
<path d="M341.406 139.312H337.909V142.672H341.406V139.312Z" fill="#FFD480"/>
<path d="M359.704 136.444H363.12C362.876 138.821 362.144 140.46 360.842 141.443C359.541 142.426 357.508 142.918 354.824 142.918C351.815 142.918 349.62 142.263 348.318 140.951C346.936 139.64 346.285 137.346 346.285 134.068C346.285 132.347 346.448 130.872 346.854 129.724C347.18 128.577 347.749 127.676 348.562 127.02C349.294 126.365 350.189 125.955 351.165 125.627C352.141 125.381 353.36 125.217 354.824 125.217C357.508 125.217 359.46 125.709 360.761 126.61C362.062 127.512 362.794 129.151 363.038 131.445H359.623C359.46 130.134 358.972 129.233 358.24 128.823C357.508 128.413 356.37 128.167 354.824 128.167C353.848 128.167 353.035 128.249 352.466 128.331C351.897 128.495 351.327 128.741 350.921 129.151C350.433 129.561 350.107 130.134 349.945 130.954C349.782 131.773 349.62 132.757 349.62 134.068C349.62 135.297 349.701 136.362 349.945 137.1C350.107 137.919 350.514 138.493 350.921 138.903C351.409 139.312 351.897 139.558 352.466 139.722C353.035 139.886 353.848 139.968 354.743 139.968C356.37 139.968 357.508 139.722 358.24 139.23C359.135 138.821 359.541 137.919 359.704 136.444Z" fill="#FFD480"/>
<path d="M374.749 139.804C375.4 139.968 376.213 140.05 377.189 140.05C378.246 140.05 379.059 139.968 379.628 139.804C380.279 139.64 380.767 139.394 381.336 138.985C381.824 138.575 382.15 138.001 382.394 137.182C382.556 136.362 382.719 135.379 382.719 134.15C382.719 132.838 382.638 131.773 382.394 131.036C382.231 130.216 381.824 129.642 381.336 129.233C380.848 128.823 380.279 128.577 379.628 128.413C379.059 128.249 378.165 128.249 377.189 128.249C376.131 128.249 375.318 128.331 374.749 128.413C374.18 128.495 373.61 128.823 373.041 129.233C372.553 129.642 372.147 130.216 371.984 131.036C371.821 131.855 371.659 132.838 371.659 134.15C371.659 135.379 371.74 136.444 371.984 137.182C372.147 137.919 372.553 138.575 373.041 138.985C373.61 139.394 374.098 139.722 374.749 139.804ZM381.092 142.59C380.035 142.836 378.734 143 377.189 143C375.644 143 374.342 142.836 373.285 142.59C372.228 142.344 371.333 141.853 370.52 141.197C369.788 140.542 369.219 139.64 368.812 138.493C368.487 137.346 368.324 135.952 368.324 134.232C368.324 132.511 368.487 131.036 368.894 129.888C369.3 128.741 369.869 127.84 370.601 127.184C371.415 126.528 372.309 126.119 373.366 125.791C374.424 125.545 375.644 125.381 377.189 125.381C378.653 125.381 379.954 125.545 381.011 125.791C382.068 126.037 382.963 126.528 383.776 127.184C384.589 127.84 385.159 128.741 385.565 129.888C385.972 131.036 386.135 132.511 386.135 134.232C386.135 135.952 385.972 137.346 385.565 138.493C385.24 139.64 384.671 140.542 383.857 141.197C383.126 141.771 382.15 142.262 381.092 142.59Z" fill="#FFD480"/>
<path d="M401.099 137.428L395.08 130.872V142.59H391.746V125.709H394.267L401.099 133.33L407.849 125.709H410.37V142.59H407.035V130.872L401.099 137.428Z" fill="#FFD480"/>
</g>
<defs>
<clipPath id="clip0_54_437">
<rect width="530" height="143" fill="white"/>
</clipPath>
</defs>
</svg>
