<svg width="45" height="46" viewBox="0 0 45 46" fill="none" xmlns="http://www.w3.org/2000/svg">
<path d="M0 24.6561V21.8453C0.0267813 21.7035 0.0565383 21.5617 0.0783601 21.4189C0.243015 20.3501 0.324351 19.2625 0.581253 18.2164C2.28732 11.2642 6.37097 6.16693 12.7747 2.99021C17.016 0.887276 21.5341 0.278505 26.1971 1.07268C32.0354 2.06417 36.7945 4.93947 40.3812 9.64506C44.1375 14.5668 45.5827 20.1548 44.7863 26.2861C44.199 30.8043 42.3402 34.7782 39.302 38.174C35.8383 42.0408 31.5384 44.463 26.4173 45.3891C25.5861 45.5388 24.7419 45.624 23.9048 45.7391H21.0947C20.5462 45.6706 19.9957 45.6121 19.4482 45.5338C14.9707 44.8923 11.017 43.1007 7.63068 40.0975C3.72458 36.6273 1.28253 32.3153 0.350141 27.1686C0.19838 26.3367 0.11506 25.4939 0 24.6561ZM22.4695 33.4694C26.2923 33.4694 30.1147 33.4694 33.9369 33.4694C35.8383 33.4694 37.0008 32.3044 37.0018 30.4067C37.0018 25.6344 37.0018 20.863 37.0018 16.0927C36.9979 14.195 35.8373 13.032 33.9329 13.032C26.3177 13.032 18.7026 13.032 11.0875 13.032C9.15623 13.032 8.00066 14.189 8.00066 16.1175C8.00066 20.8587 8.0334 25.602 7.98281 30.3433C7.96396 32.0685 9.18301 33.516 11.1351 33.4873C14.9122 33.4278 18.6914 33.4694 22.4695 33.4694Z" fill="#FFD480"/>
<path d="M10.3306 16.5308L14.2833 19.6619L21.6442 25.5047C22.2651 26.0004 22.7511 25.9955 23.385 25.4928C26.9293 22.6823 30.4727 19.8707 34.0151 17.0582C34.2056 16.9065 34.397 16.7608 34.6767 16.5367V30.2777C34.6767 31.058 34.5776 31.1532 33.784 31.1532H11.1955C10.4347 31.1532 10.3306 31.054 10.3306 30.2945C10.3306 25.8891 10.3306 21.4832 10.3306 17.0771V16.5308Z" fill="#FFD480"/>
<path d="M32.385 15.3738C31.5667 16.0242 30.8277 16.6131 30.0878 17.2001C27.6689 19.1209 25.2503 21.0424 22.832 22.9646C22.6079 23.1431 22.4621 23.1996 22.2032 22.9933C19.1051 20.5166 15.9988 18.0488 12.8843 15.5899C12.8178 15.5384 12.7395 15.5027 12.7266 15.3738H32.385Z" fill="#FFD480"/>
</svg>
