<svg width="45" height="46" viewBox="0 0 45 46" fill="none" xmlns="http://www.w3.org/2000/svg">
<path d="M21.0938 0.737549C22.0312 0.737549 22.9688 0.737549 23.9062 0.737549C24.0234 0.760986 24.1289 0.796143 24.2461 0.807861C25.6406 1.04224 27.0586 1.18286 28.4297 1.54614C36.75 3.72583 43.2656 10.9094 44.6602 19.3586C44.8008 20.179 44.8945 21.011 45 21.8313C45 22.7688 45 23.7063 45 24.6438C44.9766 24.761 44.9414 24.8665 44.9297 24.9836C44.6367 28.8625 43.4297 32.4368 41.2617 35.6477C37.6758 40.9446 32.7305 44.2141 26.4258 45.386C25.5938 45.5383 24.75 45.6204 23.918 45.7375C22.9805 45.7375 22.043 45.7375 21.1055 45.7375C21.0117 45.7141 20.9063 45.679 20.8125 45.6672C16.9102 45.3743 13.3125 44.1672 10.0664 41.9641C4.78125 38.3899 1.52344 33.4446 0.351562 27.1633C0.199219 26.3313 0.117188 25.4875 0 24.6438C0 23.7063 0 22.7688 0 21.8313C0.105469 21.0696 0.175781 20.2961 0.304687 19.5344C1.08984 14.8821 3.14062 10.8508 6.44531 7.48755C9.80859 4.06567 13.875 1.90942 18.6211 1.07739C19.4414 0.936768 20.2734 0.854736 21.0938 0.737549ZM22.1953 30.3743C22.3125 30.4563 22.4062 30.5149 22.5 30.5852C24.1875 31.8274 25.875 33.0696 27.5625 34.3118C28.7578 35.1907 29.5781 34.8743 29.8945 33.4211C30.7383 29.4602 31.582 25.4993 32.4258 21.5266C32.8008 19.7571 33.1875 17.9758 33.5508 16.2063C33.668 15.6086 33.7617 14.9875 33.2227 14.5305C32.6953 14.0852 32.1445 14.3313 31.6055 14.5422C26.25 16.6165 20.8828 18.679 15.5273 20.7532C13.6875 21.468 11.8477 22.1711 10.0078 22.8977C9.60938 23.0618 9.14063 23.2961 9.1875 23.8118C9.23438 24.304 9.71484 24.4329 10.125 24.5618C11.8008 25.0891 13.4766 25.6047 15.1406 26.1438C15.4805 26.2493 15.7383 26.2024 16.0313 26.0149C20.0742 23.4602 24.1289 20.9055 28.1719 18.3625C28.3711 18.2336 28.5703 18.093 28.793 18.0344C28.9453 17.9875 29.1445 18.0579 29.3203 18.0813C29.25 18.2102 29.1914 18.3625 29.0977 18.468C28.9688 18.6204 28.8047 18.7493 28.6523 18.8899C25.4648 21.761 22.2891 24.6438 19.0898 27.5149C18.8437 27.7375 18.7383 27.9719 18.7266 28.3C18.668 29.3665 18.5859 30.4329 18.5039 31.4993C18.457 32.1672 18.4219 32.8352 18.375 33.5149C18.832 33.5501 19.1367 33.3391 19.418 33.0696C20.332 32.1672 21.2578 31.2649 22.1953 30.3743Z" fill="#FFD480"/>
</svg>
