<svg width="45" height="46" viewBox="0 0 45 46" fill="none" xmlns="http://www.w3.org/2000/svg">
<path d="M23.93 45.7375H21.117C20.5669 45.6691 20.0158 45.6106 19.4677 45.5332C15.3122 44.9431 11.5798 43.361 8.3358 40.6969C4.02938 37.1608 1.34842 32.6488 0.350511 27.1608C0.19859 26.3276 0.115182 25.4845 0 24.6464V21.8345C0.141992 20.8525 0.247244 19.8626 0.432925 18.8886C2.27286 9.23672 10.5252 1.74711 20.3107 0.848476C25.1206 0.406101 29.6941 1.26605 33.8148 3.80326C41.8776 8.77154 45.614 16.0558 44.918 25.4925C44.5883 29.9559 42.8517 33.9422 40.0078 37.4058C36.472 41.7135 31.9471 44.3886 26.4491 45.3884C25.618 45.5402 24.7721 45.6225 23.93 45.7375ZM9.41513 36.5518C9.61372 36.5072 9.73982 36.4824 9.86394 36.4527C11.9601 35.9081 14.0532 35.3527 16.1533 34.827C16.4152 34.77 16.6885 34.7988 16.9327 34.9093C19.4101 36.1184 22.0127 36.5846 24.7452 36.2275C32.2569 35.2436 37.4957 28.2449 36.325 20.7811C35.1642 13.3798 28.1461 8.349 20.7357 9.60967C11.6771 11.152 6.78382 21.1233 11.121 29.2249C11.1908 29.3416 11.235 29.4718 11.2508 29.6069C11.2665 29.742 11.2534 29.8788 11.2124 30.0085C10.6096 32.1608 10.0288 34.3191 9.41513 36.5518Z" fill="#FFD480"/>
<path d="M12.6445 33.3695C12.9871 32.1237 13.2949 30.9533 13.6375 29.7928C13.695 29.6235 13.712 29.443 13.687 29.2659C13.662 29.0888 13.5957 28.92 13.4935 28.7732C10.1175 23.2901 11.9504 16.2488 17.5646 13.0937C24.3116 9.30176 32.8967 13.4825 34.0644 21.1278C34.2946 22.5847 34.2342 24.0727 33.8867 25.5062C33.5392 26.9397 32.9114 28.2905 32.0395 29.4808C31.1675 30.6711 30.0686 31.6774 28.806 32.442C27.5433 33.2066 26.1418 33.7143 24.682 33.9359C22.0229 34.3415 19.5266 33.8119 17.1992 32.4639C17.0028 32.357 16.7752 32.3219 16.5557 32.3647C15.2778 32.6752 14.0078 33.0174 12.6445 33.3695ZM26.5269 29.3375C26.7365 29.337 26.9458 29.3224 27.1535 29.2939C28.7164 28.9755 29.8801 28.0798 29.8215 26.4006C29.8121 26.2988 29.7806 26.2002 29.7292 26.1118C29.6777 26.0234 29.6076 25.9473 29.5236 25.8888C28.6548 25.4385 27.7641 25.0289 26.8794 24.6073C26.5239 24.4377 26.2548 24.5081 26.0155 24.8473C25.7316 25.254 25.391 25.621 25.0812 26.0108C24.8776 26.2677 24.6403 26.3014 24.3424 26.1824C22.3645 25.3958 20.8582 24.0677 19.7629 22.2536C19.5902 21.967 19.6239 21.7497 19.8295 21.5028C20.1108 21.185 20.3637 20.8431 20.5851 20.4811C20.6933 20.2927 20.7489 19.9911 20.6774 19.7967C20.3468 18.9041 19.9725 18.0332 19.5902 17.1633C19.5098 16.9775 19.3724 16.8219 19.198 16.719C18.7442 16.4819 17.7483 16.6674 17.3809 17.0255C16.3313 18.0471 15.9619 19.282 16.2559 20.7103C16.5071 21.9342 17.1942 22.935 17.93 23.9071C19.3529 25.7866 21.0081 27.4054 23.1926 28.3804C24.255 28.8575 25.3324 29.3346 26.5269 29.3385V29.3375Z" fill="#FFD480"/>
</svg>
